<svg width="241" height="75" viewBox="0 0 241 75" fill="none" xmlns="http://www.w3.org/2000/svg">
<path d="M22.656 62.512C19.1573 62.512 16.0427 61.744 13.312 60.208C10.624 58.6293 8.512 56.432 6.976 53.616C5.44 50.8 4.672 47.5147 4.672 43.76V19.632H9.472V43.888C9.472 47.1733 10.0907 49.84 11.328 51.888C12.608 53.936 14.2507 55.4507 16.256 56.432C18.304 57.3707 20.4373 57.84 22.656 57.84C24.9173 57.84 27.0507 57.3707 29.056 56.432C31.0613 55.4507 32.704 53.936 33.984 51.888C35.264 49.84 35.904 47.1733 35.904 43.888V19.632H40.704V43.76C40.704 47.472 39.936 50.736 38.4 53.552C36.864 56.368 34.7307 58.5653 32 60.144C29.312 61.7227 26.1973 62.512 22.656 62.512ZM48.8475 62V30H53.6475V34.992C54.7995 33.456 56.2075 32.1547 57.8715 31.088C59.5355 30.0213 61.6688 29.488 64.2715 29.488C66.4902 29.488 68.5595 30.0213 70.4795 31.088C72.4422 32.112 74.0208 33.6693 75.2155 35.76C76.4528 37.808 77.0715 40.3467 77.0715 43.376V62H72.2715V43.504C72.2715 40.6027 71.4395 38.2773 69.7755 36.528C68.1115 34.736 65.9568 33.84 63.3115 33.84C61.5195 33.84 59.8982 34.2453 58.4475 35.056C56.9968 35.8667 55.8235 37.0187 54.9275 38.512C54.0742 39.9627 53.6475 41.648 53.6475 43.568V62H48.8475ZM99.7465 62V19.632H104.547V57.392H127.651V62H99.7465ZM146.473 62V30H151.273V34.992C152.425 33.456 153.833 32.1547 155.497 31.088C157.161 30.0213 159.294 29.488 161.897 29.488C164.115 29.488 166.185 30.0213 168.105 31.088C170.067 32.112 171.646 33.6693 172.841 35.76C174.078 37.808 174.697 40.3467 174.697 43.376V62H169.897V43.504C169.897 40.6027 169.065 38.2773 167.401 36.528C165.737 34.736 163.582 33.84 160.937 33.84C159.145 33.84 157.523 34.2453 156.073 35.056C154.622 35.8667 153.449 37.0187 152.553 38.512C151.699 39.9627 151.273 41.648 151.273 43.568V62H146.473ZM182.723 62V17.2H187.523V45.872L202.947 30H209.667L196.803 42.608L210.627 62H204.739L193.539 45.936L187.523 51.888V62H182.723ZM225.621 62.512C222.677 62.512 220.181 62.0213 218.133 61.04C216.127 60.0587 214.591 58.7787 213.525 57.2C212.458 55.5787 211.861 53.8293 211.733 51.952H216.725C216.853 53.0187 217.215 54.064 217.812 55.088C218.453 56.0693 219.413 56.88 220.693 57.52C221.973 58.1173 223.637 58.416 225.685 58.416C226.325 58.416 227.114 58.352 228.053 58.224C228.991 58.096 229.887 57.8613 230.741 57.52C231.637 57.1787 232.383 56.6667 232.981 55.984C233.578 55.3013 233.877 54.4267 233.877 53.36C233.877 52.0373 233.365 51.0133 232.341 50.288C231.317 49.5627 229.994 49.008 228.373 48.624C226.751 48.1973 225.023 47.792 223.189 47.408C221.397 47.024 219.69 46.5333 218.069 45.936C216.447 45.296 215.125 44.4213 214.101 43.312C213.077 42.16 212.565 40.6027 212.565 38.64C212.565 35.7387 213.61 33.4987 215.701 31.92C217.834 30.2987 220.97 29.488 225.109 29.488C227.925 29.488 230.207 29.936 231.957 30.832C233.749 31.6853 235.093 32.7947 235.989 34.16C236.927 35.5253 237.482 36.9973 237.653 38.576H232.789C232.618 37.2107 231.935 36.0373 230.741 35.056C229.589 34.0747 227.669 33.584 224.981 33.584C219.903 33.584 217.365 35.12 217.365 38.192C217.365 39.472 217.877 40.4533 218.901 41.136C219.925 41.8187 221.247 42.3733 222.869 42.8C224.49 43.184 226.197 43.568 227.989 43.952C229.823 44.2933 231.551 44.784 233.173 45.424C234.794 46.064 236.117 46.9813 237.141 48.176C238.165 49.328 238.677 50.9067 238.677 52.912C238.677 56.0267 237.482 58.416 235.093 60.08C232.746 61.7013 229.589 62.512 225.621 62.512Z" fill="black"/>
<path d="M88 62V26.5C88 12.969 98.969 2 112.5 2C126.031 2 137 12.969 137 26.5V62" stroke="#70DB49" stroke-width="4"/>
</svg>
