<svg width="211" height="85" viewBox="0 0 211 85" fill="none" xmlns="http://www.w3.org/2000/svg">
<path d="M22.656 72.512C19.1573 72.512 16.0427 71.744 13.312 70.208C10.624 68.6293 8.512 66.432 6.976 63.616C5.44 60.8 4.672 57.5147 4.672 53.76V29.632H9.472V53.888C9.472 57.1733 10.0907 59.84 11.328 61.888C12.608 63.936 14.2507 65.4507 16.256 66.432C18.304 67.3707 20.4373 67.84 22.656 67.84C24.9173 67.84 27.0507 67.3707 29.056 66.432C31.0613 65.4507 32.704 63.936 33.984 61.888C35.264 59.84 35.904 57.1733 35.904 53.888V29.632H40.704V53.76C40.704 57.472 39.936 60.736 38.4 63.552C36.864 66.368 34.7307 68.5653 32 70.144C29.312 71.7227 26.1973 72.512 22.656 72.512ZM48.8475 72V40H53.6475V44.992C54.7995 43.456 56.2075 42.1547 57.8715 41.088C59.5355 40.0213 61.6688 39.488 64.2715 39.488C66.4902 39.488 68.5595 40.0213 70.4795 41.088C72.4422 42.112 74.0208 43.6693 75.2155 45.76C76.4528 47.808 77.0715 50.3467 77.0715 53.376V72H72.2715V53.504C72.2715 50.6027 71.4395 48.2773 69.7755 46.528C68.1115 44.736 65.9568 43.84 63.3115 43.84C61.5195 43.84 59.8982 44.2453 58.4475 45.056C56.9968 45.8667 55.8235 47.0187 54.9275 48.512C54.0742 49.9627 53.6475 51.648 53.6475 53.568V72H48.8475ZM99.7465 72V29.632H104.547V67.392H127.651V72H99.7465ZM146.473 72V40H151.273V44.992C152.425 43.456 153.833 42.1547 155.497 41.088C157.161 40.0213 159.294 39.488 161.897 39.488C164.115 39.488 166.185 40.0213 168.105 41.088C170.067 42.112 171.646 43.6693 172.841 45.76C174.078 47.808 174.697 50.3467 174.697 53.376V72H169.897V53.504C169.897 50.6027 169.065 48.2773 167.401 46.528C165.737 44.736 163.582 43.84 160.937 43.84C159.145 43.84 157.523 44.2453 156.073 45.056C154.622 45.8667 153.449 47.0187 152.553 48.512C151.699 49.9627 151.273 51.648 151.273 53.568V72H146.473ZM182.723 72V27.2H187.523V55.872L202.947 40H209.667L196.803 52.608L210.627 72H204.739L193.539 55.936L187.523 61.888V72H182.723Z" fill="black"/>
<path d="M88 72V26.5C88 12.969 98.969 2 112.5 2C126.031 2 137 12.969 137 26.5V72" stroke="black" stroke-width="4"/>
</svg>
