<svg width="254" height="66" viewBox="0 0 254 66" fill="none" xmlns="http://www.w3.org/2000/svg">
<path d="M22.656 53.512C19.1573 53.512 16.0427 52.744 13.312 51.208C10.624 49.6293 8.512 47.432 6.976 44.616C5.44 41.8 4.672 38.5147 4.672 34.76V10.632H9.472V34.888C9.472 38.1733 10.0907 40.84 11.328 42.888C12.608 44.936 14.2507 46.4507 16.256 47.432C18.304 48.3707 20.4373 48.84 22.656 48.84C24.9173 48.84 27.0507 48.3707 29.056 47.432C31.0613 46.4507 32.704 44.936 33.984 42.888C35.264 40.84 35.904 38.1733 35.904 34.888V10.632H40.704V34.76C40.704 38.472 39.936 41.736 38.4 44.552C36.864 47.368 34.7307 49.5653 32 51.144C29.312 52.7227 26.1973 53.512 22.656 53.512ZM48.8475 53V21H53.6475V25.992C54.7995 24.456 56.2075 23.1547 57.8715 22.088C59.5355 21.0213 61.6688 20.488 64.2715 20.488C66.4902 20.488 68.5595 21.0213 70.4795 22.088C72.4422 23.112 74.0208 24.6693 75.2155 26.76C76.4528 28.808 77.0715 31.3467 77.0715 34.376V53H72.2715V34.504C72.2715 31.6027 71.4395 29.2773 69.7755 27.528C68.1115 25.736 65.9568 24.84 63.3115 24.84C61.5195 24.84 59.8982 25.2453 58.4475 26.056C56.9968 26.8667 55.8235 28.0187 54.9275 29.512C54.0742 30.9627 53.6475 32.648 53.6475 34.568V53H48.8475ZM84.9055 15.624V9.352H90.0895V15.624H84.9055ZM85.0975 53V21H89.8975V53H85.0975ZM99.2465 53V10.632H104.047V48.392H127.151V53H99.2465ZM159.598 53V21H164.398V25.992C165.55 24.456 166.958 23.1547 168.622 22.088C170.286 21.0213 172.419 20.488 175.022 20.488C177.24 20.488 179.31 21.0213 181.23 22.088C183.192 23.112 184.771 24.6693 185.966 26.76C187.203 28.808 187.822 31.3467 187.822 34.376V53H183.022V34.504C183.022 31.6027 182.19 29.2773 180.526 27.528C178.862 25.736 176.707 24.84 174.062 24.84C172.27 24.84 170.648 25.2453 169.198 26.056C167.747 26.8667 166.574 28.0187 165.678 29.512C164.824 30.9627 164.398 32.648 164.398 34.568V53H159.598ZM195.848 53V8.2H200.648V36.872L216.072 21H222.792L209.928 33.608L223.752 53H217.864L206.664 36.936L200.648 42.888V53H195.848ZM238.746 53.512C235.802 53.512 233.306 53.0213 231.258 52.04C229.252 51.0587 227.716 49.7787 226.65 48.2C225.583 46.5787 224.986 44.8293 224.858 42.952H229.85C229.978 44.0187 230.34 45.064 230.938 46.088C231.578 47.0693 232.538 47.88 233.818 48.52C235.098 49.1173 236.762 49.416 238.81 49.416C239.45 49.416 240.239 49.352 241.178 49.224C242.116 49.096 243.012 48.8613 243.866 48.52C244.762 48.1787 245.508 47.6667 246.106 46.984C246.703 46.3013 247.002 45.4267 247.002 44.36C247.002 43.0373 246.49 42.0133 245.466 41.288C244.442 40.5627 243.119 40.008 241.498 39.624C239.876 39.1973 238.148 38.792 236.314 38.408C234.522 38.024 232.815 37.5333 231.194 36.936C229.572 36.296 228.25 35.4213 227.226 34.312C226.202 33.16 225.69 31.6027 225.69 29.64C225.69 26.7387 226.735 24.4987 228.826 22.92C230.959 21.2987 234.095 20.488 238.234 20.488C241.05 20.488 243.332 20.936 245.082 21.832C246.874 22.6853 248.218 23.7947 249.114 25.16C250.052 26.5253 250.607 27.9973 250.778 29.576H245.914C245.743 28.2107 245.06 27.0373 243.866 26.056C242.714 25.0747 240.794 24.584 238.106 24.584C233.028 24.584 230.49 26.12 230.49 29.192C230.49 30.472 231.002 31.4533 232.026 32.136C233.05 32.8187 234.372 33.3733 235.994 33.8C237.615 34.184 239.322 34.568 241.114 34.952C242.948 35.2933 244.676 35.784 246.298 36.424C247.919 37.064 249.242 37.9813 250.266 39.176C251.29 40.328 251.802 41.9067 251.802 43.912C251.802 47.0267 250.607 49.416 248.218 51.08C245.871 52.7013 242.714 53.512 238.746 53.512Z" fill="black"/>
<rect x="136" y="22" width="14" height="18" rx="7" stroke="#70DB49" stroke-width="4"/>
<rect x="136" y="33" width="14" height="18" rx="7" stroke="#70DB49" stroke-width="4"/>
</svg>
